# xmcd CD database file
#
# Track frame offsets:
#	150
#	11337
#	26443
#	38412
#	51992
#	63838
#	78103
#	88419
#	98174
#	115141
#
# Disc length: 1712 seconds
#
# Revision: 0
# Processed by: cddbd v1.5.2PL0 Copyright (c) Steve Scherf et al.
# Submitted via: CDex 1.70beta2
#
DISCID=6c06ae0a
DTITLE=Conway Twitty - Country Hits
DYEAR=2008
DGENRE=Country
TTITLE0=It's Only Make Believe
TTITLE1=(Lost Her Love) On Our Last Date
TTITLE2=She Needs Someone To Hold Her (When She Cries)
TTITLE3=The Games That Daddies Play
TTITLE4=I'm Not Through Loving You Yet
TTITLE5=You've Never Been This Far Before
TTITLE6=I Can't Believe She Gives It All To Me
TTITLE7=I'll Try
TTITLE8=Don't Cry Joni (with Joni Jenkins)
TTITLE9=After All The Good Is Gone
EXTD=YEAR: 2008
EXTT0=
EXTT1=
EXTT2=
EXTT3=
EXTT4=
EXTT5=
EXTT6=
EXTT7=
EXTT8=
EXTT9=
PLAYORDER=
